<svg xmlns="http://www.w3.org/2000/svg" viewBox="0 0 640 480" width="640" height="480" role="img" aria-label="Developer illustration">
  <defs>
    <linearGradient id="bg" x1="0" y1="0" x2="1" y2="1">
      <stop offset="0%" stop-color="#4facfe"/>
      <stop offset="100%" stop-color="#00f2fe"/>
    </linearGradient>
    <filter id="shadow" x="-20%" y="-20%" width="140%" height="140%">
      <feDropShadow dx="0" dy="12" stdDeviation="16" flood-color="#00f2fe" flood-opacity="0.25"/>
    </filter>
  </defs>
  <rect width="100%" height="100%" rx="28" fill="#0b0b0e"/>
  <g transform="translate(80,60)" filter="url(#shadow)">
    <path d="M140 40c50-40 130-40 180 0s80 120 20 176-180 76-252 36S30 136 80 88s60-8 60-48Z" fill="url(#bg)" opacity="0.25"/>
  </g>
  <g transform="translate(220,120)">
    <circle cx="100" cy="60" r="36" fill="#e6faff"/>
    <rect x="40" y="112" width="120" height="96" rx="24" fill="#e6faff"/>
    <rect x="0" y="224" width="200" height="12" rx="6" fill="#00e5ff" opacity="0.5"/>
  </g>
  <g transform="translate(380,120)">
    <rect x="0" y="0" width="180" height="120" rx="16" fill="#101218" stroke="#1f2430"/>
    <rect x="16" y="20" width="148" height="12" rx="6" fill="#4facfe"/>
    <rect x="16" y="44" width="120" height="10" rx="5" fill="#22d3ee" opacity="0.9"/>
    <rect x="16" y="64" width="96" height="10" rx="5" fill="#7dd3fc" opacity="0.8"/>
    <rect x="16" y="84" width="140" height="10" rx="5" fill="#38bdf8" opacity="0.7"/>
  </g>
</svg>

