<?xml version="1.0" standalone="no"?>
<!DOCTYPE svg PUBLIC "-//W3C//DTD SVG 20010904//EN"
 "http://www.w3.org/TR/2001/REC-SVG-20010904/DTD/svg10.dtd">
<svg version="1.0" xmlns="http://www.w3.org/2000/svg"
 width="1020.000000pt" height="800.000000pt" viewBox="0 0 1020.000000 800.000000"
 preserveAspectRatio="xMidYMid meet">

<g transform="translate(0.000000,800.000000) scale(0.100000,-0.100000)"
fill="#000000" stroke="none">
<path d="M6688 7915 c-26 -9 -116 -62 -200 -118 -143 -96 -248 -172 -707 -507
-248 -182 -904 -670 -915 -681 -5 -5 11 -32 40 -66 75 -90 207 -238 214 -241
4 -1 40 24 81 56 294 230 941 683 956 669 2 -3 -7 -40 -20 -84 -107 -341 -386
-822 -708 -1217 -61 -76 -114 -136 -118 -134 -11 5 -290 309 -757 824 -60 66
-248 273 -419 459 -170 186 -341 374 -380 416 l-70 78 -3 -1527 -2 -1527 92
-89 c51 -49 171 -166 265 -259 l173 -169 2 1120 3 1120 545 -534 c300 -293
550 -533 556 -534 8 0 290 307 394 430 l21 25 -5 -30 c-36 -216 -42 -517 -13
-652 45 -212 141 -313 299 -313 106 0 192 38 326 142 34 26 62 43 62 37 0 -24
-71 -250 -143 -454 -188 -534 -403 -989 -665 -1410 -107 -171 -308 -469 -328
-486 -16 -13 -17 -10 -12 41 4 30 22 111 41 180 52 183 53 192 28 244 -12 24
-33 52 -47 61 -47 31 -67 15 -166 -133 -207 -311 -359 -509 -430 -561 -37 -28
-43 -29 -51 -15 -17 31 0 128 38 217 102 238 318 512 459 582 67 34 116 32
182 -5 29 -16 56 -25 59 -20 10 17 -34 121 -69 165 -75 91 -182 110 -297 53
-123 -60 -327 -287 -549 -608 -210 -305 -395 -540 -426 -540 -17 0 -21 40 -12
120 17 147 118 391 388 935 115 231 219 452 233 490 51 145 43 243 -24 300
-40 33 -65 32 -100 -6 -61 -65 -451 -880 -603 -1259 -69 -171 -226 -438 -346
-589 -42 -53 -43 -54 -52 -30 -20 54 23 241 122 528 39 111 70 211 70 222 0
48 -111 126 -156 109 -14 -5 -53 -74 -123 -216 -178 -364 -391 -730 -430 -742
-12 -4 -13 8 -8 65 9 106 72 312 197 643 l62 165 -18 35 c-21 40 -103 89 -147
90 -36 0 -53 -28 -117 -193 -166 -424 -231 -707 -201 -876 14 -79 40 -125 90
-158 43 -29 69 -29 112 0 62 42 168 204 283 435 31 61 57 112 59 112 1 0 1
-54 -1 -120 -3 -90 0 -133 13 -176 20 -70 66 -119 118 -129 70 -13 127 45 273
275 33 52 70 111 83 130 l22 35 -6 -56 c-8 -71 10 -182 38 -238 45 -90 125
-116 200 -65 47 31 126 131 237 296 47 70 88 127 91 128 4 0 9 -31 11 -69 6
-85 38 -144 99 -187 34 -23 52 -29 98 -28 34 0 69 7 90 18 61 32 155 141 266
309 60 91 111 164 113 162 2 -2 -1 -29 -7 -61 -16 -83 -13 -193 5 -247 9 -27
30 -59 51 -78 30 -26 42 -30 71 -25 19 3 46 15 59 27 22 22 106 148 206 309
77 126 72 127 72 -17 0 -117 2 -132 25 -177 14 -28 38 -59 53 -70 28 -21 29
-21 43 -2 7 11 24 51 36 89 46 146 197 408 318 553 27 32 60 74 72 91 13 18
26 33 29 33 4 0 -9 -46 -27 -102 -93 -283 -96 -470 -9 -547 20 -17 45 -31 57
-31 50 0 111 59 203 198 26 39 51 72 55 72 4 0 11 -19 14 -42 9 -61 45 -120
87 -142 83 -45 159 13 293 221 44 68 81 122 83 120 1 -2 -4 -21 -12 -43 -7
-21 -32 -107 -55 -191 -48 -182 -88 -293 -105 -293 -6 0 -81 -9 -166 -20 -971
-130 -1976 -421 -2437 -708 -168 -104 -310 -239 -381 -360 -61 -106 -76 -160
-76 -287 0 -99 3 -116 27 -169 40 -83 88 -145 155 -197 80 -62 120 -84 218
-118 292 -103 644 -84 1060 59 208 72 490 218 697 362 199 138 493 412 648
603 108 132 262 373 350 546 45 90 84 166 86 168 8 10 323 31 539 37 458 12
847 -38 992 -128 69 -42 78 -105 26 -178 -28 -39 -124 -110 -149 -110 -8 0
-14 -5 -14 -11 0 -27 153 17 213 61 79 58 110 128 88 201 -45 149 -280 245
-697 285 -137 13 -229 15 -484 10 -173 -4 -348 -10 -388 -14 -53 -5 -71 -4
-68 4 15 39 100 334 136 469 23 88 59 225 80 305 63 236 67 263 47 305 -18 38
-69 75 -104 75 -12 0 -30 12 -42 29 -24 33 -77 61 -118 61 -152 -1 -388 -299
-493 -625 -44 -137 -70 -182 -174 -300 l-35 -40 -1 50 c0 90 56 287 160 559
l42 109 -20 26 c-10 14 -33 34 -51 44 -30 18 -32 18 -76 -3 -60 -29 -196 -175
-341 -365 -64 -85 -119 -153 -121 -151 -6 6 122 276 299 630 276 551 431 920
532 1262 91 308 99 460 27 521 -55 48 -125 24 -287 -98 -177 -133 -275 -154
-319 -68 -65 125 17 607 189 1117 101 295 203 539 413 982 157 329 203 444
233 581 25 110 25 265 0 313 -33 65 -106 88 -192 61z m342 -4760 c0 -24 -44
-134 -93 -232 -94 -186 -228 -395 -317 -493 l-41 -45 5 85 c5 99 24 172 71
289 71 174 176 320 274 383 49 31 101 38 101 13z m-430 -1282 c0 -15 -156
-266 -219 -350 -318 -432 -838 -824 -1376 -1036 -454 -179 -837 -185 -1030
-16 -77 68 -85 187 -20 314 172 340 839 689 1755 920 273 69 410 98 629 135
97 16 187 31 201 33 42 7 60 7 60 0z"/>
<path d="M2708 5619 c-353 -358 -644 -654 -646 -658 -1 -4 125 -131 280 -282
607 -587 877 -862 976 -992 15 -20 30 -36 35 -37 4 0 7 109 6 243 l0 242 -404
415 c-223 228 -405 419 -405 423 0 5 182 194 405 420 l405 412 0 233 c0 127
-2 232 -4 232 -2 0 -294 -293 -648 -651z"/>
<path d="M6869 5928 c-17 -18 -64 -78 -106 -133 -42 -55 -110 -140 -151 -189
-41 -49 -112 -134 -158 -188 -45 -54 -92 -119 -104 -145 -27 -57 -29 -122 -6
-159 16 -23 23 -26 59 -21 22 3 52 14 66 25 85 62 483 684 498 776 11 70 -46
90 -98 34z"/>
<path d="M8045 5874 c-283 -59 -493 -221 -778 -601 -212 -281 -490 -768 -613
-1070 -69 -171 -32 -284 74 -227 67 36 135 136 285 416 145 270 161 297 245
434 132 214 277 406 402 534 260 265 536 331 688 166 55 -59 76 -129 69 -225
-9 -139 -74 -257 -232 -420 -137 -142 -333 -283 -775 -556 -475 -294 -635
-407 -734 -517 -89 -100 -125 -198 -94 -258 19 -36 38 -35 95 4 110 76 362
221 623 358 325 172 427 230 615 350 388 249 598 484 687 768 20 66 23 95 23
240 0 147 -3 172 -23 230 -29 80 -98 193 -149 242 -105 101 -281 158 -408 132z"/>
<path d="M4673 4952 c7 -37 51 -426 137 -1216 22 -203 43 -373 46 -378 3 -5
71 103 150 239 79 136 148 249 152 251 4 1 76 -135 159 -302 90 -180 162 -311
175 -320 64 -45 188 12 188 88 0 33 -23 76 -219 409 -68 115 -121 210 -119
212 6 6 493 -82 563 -102 l20 -6 -20 23 c-11 13 -86 82 -166 154 -80 72 -303
277 -494 456 -478 447 -559 520 -569 520 -5 0 -6 -13 -3 -28z"/>
<path d="M2330 4099 c-413 -41 -938 -600 -1144 -1217 -129 -389 -108 -762 53
-943 l39 -44 -18 -36 c-39 -75 -111 -265 -135 -353 -80 -298 -6 -531 201 -628
59 -27 72 -30 147 -26 178 8 357 124 580 373 474 532 847 1431 847 2040 -1
436 -127 724 -356 813 -63 25 -121 30 -214 21z m230 -276 c111 -119 115 -485
10 -903 -85 -338 -232 -707 -423 -1062 -234 -434 -483 -763 -638 -840 -188
-95 -285 75 -209 367 23 90 57 181 123 329 l35 80 79 1 c103 2 172 33 253 113
55 55 125 151 116 159 -2 3 -24 -11 -48 -29 -67 -51 -180 -99 -249 -105 l-60
-6 29 50 c132 223 232 365 410 578 122 145 133 162 128 189 -8 39 -83 116
-112 116 -58 0 -397 -413 -552 -673 -54 -90 -60 -86 -61 33 -2 163 49 412 124
615 145 390 458 798 748 974 75 45 128 61 196 58 60 -3 66 -5 101 -44z"/>
<path d="M8420 3983 c-57 -51 -90 -235 -55 -302 17 -33 33 -41 85 -41 76 0
146 98 157 219 4 47 2 60 -17 84 -25 31 -60 51 -107 61 -26 6 -37 2 -63 -21z"/>
<path d="M9668 3710 c-67 -20 -164 -116 -257 -253 -69 -102 -143 -277 -190
-453 -14 -52 -89 -151 -172 -228 l-64 -60 -3 32 c-6 60 83 327 202 604 25 59
46 121 46 138 0 52 -85 130 -141 130 -42 0 -188 -176 -320 -386 -35 -56 -70
-110 -76 -120 -7 -11 4 19 23 66 95 224 97 288 11 335 -27 14 -38 15 -55 6
-28 -15 -36 -32 -121 -240 -84 -204 -134 -304 -208 -420 -77 -121 -165 -241
-175 -241 -33 0 47 244 192 584 97 227 101 238 86 261 -23 35 -100 77 -133 73
-26 -3 -33 -17 -115 -213 -48 -115 -107 -255 -130 -310 -43 -102 -163 -293
-237 -375 l-40 -45 -1 51 c0 87 64 298 164 541 14 35 26 72 26 84 0 13 -20 42
-49 70 -50 51 -96 64 -120 35 -6 -7 -47 -107 -92 -222 -65 -170 -97 -237 -172
-362 -87 -146 -183 -281 -199 -282 -32 -1 19 191 121 459 98 256 95 244 81
286 -24 72 -124 113 -151 63 -52 -97 -221 -572 -244 -687 -39 -189 15 -311
134 -311 35 0 46 6 85 47 25 25 86 114 135 197 50 83 94 156 98 163 5 6 8 -39
8 -100 1 -85 5 -120 17 -143 21 -39 72 -64 113 -57 39 8 112 86 183 196 l57
89 5 -109 c3 -59 9 -115 14 -123 25 -41 51 -60 83 -60 44 0 106 61 192 190 35
52 64 96 65 97 1 1 1 -33 1 -75 0 -55 5 -86 18 -110 20 -36 81 -72 96 -56 5 5
33 63 61 129 75 172 130 279 222 429 78 129 197 295 210 296 3 0 -14 -48 -38
-107 -115 -278 -150 -466 -106 -566 24 -55 70 -87 124 -87 32 0 47 9 103 62
36 34 89 92 118 130 l51 70 16 -59 c22 -78 43 -117 91 -163 44 -42 130 -80
183 -80 101 0 252 83 373 206 166 168 293 426 293 592 0 34 -4 29 -49 -63
-123 -255 -329 -486 -502 -565 -48 -21 -129 -26 -161 -9 -11 6 -26 26 -34 44
-17 43 -19 165 -1 187 6 9 35 23 63 32 138 45 294 214 362 394 34 88 38 256 9
310 -30 55 -110 83 -179 62z m82 -207 c-19 -109 -96 -256 -199 -381 -37 -44
-110 -107 -116 -100 -8 8 66 193 107 268 77 141 207 317 216 291 2 -6 -1 -42
-8 -78z"/>
</g>
</svg>
